<svg id="LOGOWALL" xmlns="http://www.w3.org/2000/svg" width="274.229" height="70" viewBox="0 0 274.229 70">
  <path id="Tracé_1" data-name="Tracé 1" d="M19.294,0S6.28,21.539,0,40.834c0,0,4.49-8.076,24.683,6.286,0,0,6.28,16.151,11.225,22.88L21.09,25.132s-.449,4.933,1.321,14.355c0,0-8.076-6.729-12.546-4.933A218.281,218.281,0,0,1,19.294,0Z" fill="#fff"/>
  <path id="Tracé_2" data-name="Tracé 2" d="M80.6,0S93.612,21.539,99.9,40.834c0,0-4.49-8.076-24.683,6.286,0,0-6.28,16.151-11.225,22.88L78.807,25.132s.449,4.933-1.321,14.355c0,0,8.076-6.729,12.546-4.933A215.308,215.308,0,0,0,80.6,0Z" transform="translate(-21.736)" fill="#fff"/>
  <ellipse id="Ellipse_1" data-name="Ellipse 1" cx="6.729" cy="8.525" rx="6.729" ry="8.525" transform="translate(32.844 9.654)" fill="#fff"/>
  <path id="Tracé_3" data-name="Tracé 3" d="M197.822,29.283c-4.219,12-7.429,24.009-10.935,36.014a11.037,11.037,0,0,1-6.24,2.021l-1.129-.832c-3.09-8.8-5.883-17.591-9.244-27.073C167.719,48,166,56.884,163.143,65.323a11.037,11.037,0,0,1-6.24,2.021l-1.109-.832c-4.279-12.48-7.719-24.96-12.3-37.559a18.977,18.977,0,0,0-3.3-.357,5.9,5.9,0,0,1,0-4.041h14.527l.66,4.041-4.457.66c3.09,10.043,5.765,20.146,9.39,30.071,2.971-8.855,4.933-18.185,7.488-27.159l-1.9-5.527c1.486-2.258,3.3-2.641,6.181-2.641l1.07.832c2.734,9.509,6.894,23.89,10.935,34.706,3.269-10.1,5.705-20.265,8.439-30.308a25.376,25.376,0,0,0-4.695-.594,5.9,5.9,0,0,1,0-4.041H201.15l.66,4.041Z" transform="translate(-47.502 -8.152)" fill="#fff"/>
  <path id="Tracé_4" data-name="Tracé 4" d="M269.34,66.728H255.018l-.66-4.041,4.338-.713c-.713-2.08-1.545-4.622-2.641-7.726l-15.808-.059-2.641,7.963a21.71,21.71,0,0,0,4.4.535,5.9,5.9,0,0,1,0,4.041H228.75l-.66-4.041,4.279-.713c4.523-12,8.8-23.95,12.83-36.014a10.757,10.757,0,0,1,6.181-2.021l1.129.832c4.279,12.6,8.855,25.019,13.55,37.559a20.363,20.363,0,0,0,3.269.357A5.9,5.9,0,0,1,269.34,66.728Zm-14.9-17.294c-1.723-4.873-3.8-10.757-6.359-17.531-2.377,6.478-4.279,11.945-6.3,17.947Z" transform="translate(-77.479 -8.132)" fill="#fff"/>
  <path id="Tracé_5" data-name="Tracé 5" d="M326.672,53.851l-.621,10.935a7.805,7.805,0,0,1-3.209,2.258H295.71l-.66-4.279,4.814-.713c.178-5.527.3-10.935.3-16.343,0-5.283-.119-10.638-.3-15.848l-4.814-.713.66-4.279H313a6.6,6.6,0,0,1,0,4.279,56.715,56.715,0,0,0-5.705.535c-.178,5.349-.357,10.7-.357,16.046s.059,10.519.3,15.927l13.371-.119,2.734-7.666a4.061,4.061,0,0,1,3.328-.02Z" transform="translate(-100.224 -8.448)" fill="#fff"/>
  <path id="Tracé_6" data-name="Tracé 6" d="M379.413,53.851l-.594,10.935a7.805,7.805,0,0,1-3.209,2.258H348.45l-.66-4.279,4.814-.713c.178-5.527.3-10.935.3-16.343,0-5.283-.119-10.638-.3-15.848l-4.814-.713.66-4.279h17.307a6.6,6.6,0,0,1,0,4.279,56.718,56.718,0,0,0-5.705.535c-.178,5.349-.357,10.7-.357,16.046s.059,10.519.3,15.927l13.371-.119,2.734-7.666A4.061,4.061,0,0,1,379.413,53.851Z" transform="translate(-118.139 -8.448)" fill="#fff"/>
  <path id="Tracé_7" data-name="Tracé 7" d="M400.81,80.554c0-2.555,1.9-4.754,5.23-4.754,2.734,0,4.338,1.6,4.338,4.219,0,2.793-2.139,4.933-5.349,4.933C402.474,84.939,400.81,83.453,400.81,80.554Z" transform="translate(-136.149 -25.748)" fill="#fff"/>
</svg>
