<svg id="Calque_1" data-name="Calque 1" xmlns="http://www.w3.org/2000/svg" viewBox="0 0 415.3 106.01"><defs><style>.cls-1{fill:#5226a5;}</style></defs><path class="cls-1" d="M29.22,0S9.51,32.62,0,61.84c0,0,6.8-12.23,37.38,9.52,0,0,9.51,24.46,17,34.65L31.94,38.06s-.68,7.47,2,21.74c0,0-12.23-10.19-19-7.47C15,52.33,18.35,30.58,29.22,0Z"/><path class="cls-1" d="M89.14,0s19.71,32.62,29.23,61.84c0,0-6.8-12.23-37.38,9.52,0,0-9.51,24.46-17,34.65L86.43,38.06s.68,7.47-2,21.74c0,0,12.23-10.19,19-7.47C103.42,52.33,100,30.58,89.14,0Z"/><ellipse class="cls-1" cx="59.93" cy="27.53" rx="10.19" ry="12.91"/><path class="cls-1" d="M227.65,32c-6.39,18.18-11.25,36.36-16.56,54.54-2.61,2.16-7,3.06-9.45,3.06l-1.71-1.26c-4.68-13.32-8.91-26.64-14-41-3.87,13-6.48,26.46-10.8,39.24-2.61,2.16-7,3.06-9.45,3.06L164,88.38c-6.48-18.9-11.69-37.8-18.62-56.88a28.74,28.74,0,0,0-5-.54,8.94,8.94,0,0,1,0-6.12h22l1,6.12-6.75,1c4.68,15.21,8.73,30.51,14.22,45.54,4.5-13.41,7.47-27.54,11.34-41.13L179.32,28c2.25-3.42,5-4,9.36-4l1.62,1.26c4.14,14.4,10.44,36.18,16.56,52.56,4.95-15.3,8.64-30.69,12.78-45.9a38.43,38.43,0,0,0-7.11-.9,8.94,8.94,0,0,1,0-6.12h20.16l1,6.12Z"/><path class="cls-1" d="M290.56,88.74H268.87l-1-6.12,6.57-1.08c-1.08-3.15-2.34-7-4-11.7l-23.94-.09L242.5,81.81a32.88,32.88,0,0,0,6.66.81,8.94,8.94,0,0,1,0,6.12H229.09l-1-6.12,6.48-1.08C241.42,63.36,247.9,45.27,254,27c2.52-2.16,6.93-3.06,9.36-3.06l1.71,1.26c6.48,19.08,13.41,37.89,20.52,56.88a30.84,30.84,0,0,0,4.95.54A8.94,8.94,0,0,1,290.56,88.74ZM268,62.55c-2.61-7.38-5.76-16.29-9.63-26.55-3.6,9.81-6.48,18.09-9.54,27.18Z"/><path class="cls-1" d="M342.94,68.76,342,85.32a11.82,11.82,0,0,1-4.86,3.42H296.05l-1-6.48,7.29-1.08c.27-8.37.45-16.56.45-24.75,0-8-.18-16.11-.45-24l-7.29-1.08,1-6.48h26.19a10,10,0,0,1,0,6.48,85.89,85.89,0,0,0-8.64.81c-.27,8.1-.54,16.2-.54,24.3s.09,15.93.45,24.12l20.25-.18,4.14-11.61A6.15,6.15,0,0,1,342.94,68.76Z"/><path class="cls-1" d="M395.68,68.76l-.9,16.56a11.82,11.82,0,0,1-4.86,3.42H348.79l-1-6.48,7.29-1.08c.27-8.37.45-16.56.45-24.75,0-8-.18-16.11-.45-24l-7.29-1.08,1-6.48H375a10,10,0,0,1,0,6.48,85.89,85.89,0,0,0-8.64.81c-.27,8.1-.54,16.2-.54,24.3s.09,15.93.45,24.12l20.25-.18,4.14-11.61A6.15,6.15,0,0,1,395.68,68.76Z"/><path class="cls-1" d="M400.81,83c0-3.87,2.88-7.2,7.92-7.2,4.14,0,6.57,2.43,6.57,6.39,0,4.23-3.24,7.47-8.1,7.47C403.33,89.64,400.81,87.39,400.81,83Z"/></svg>