<svg xmlns="http://www.w3.org/2000/svg" width="50" height="55.83" viewBox="0 0 50 55.83">
  <g id="PictoWALL-02" transform="translate(50) rotate(90)">
    <path id="Tracé_8" data-name="Tracé 8" d="M50.142,16.52s-9.3,15.385-13.782,29.167c0,0,3.207-5.768,17.63,4.485,0,0,4.485,11.541,8.018,16.348L51.429,34.448a41.7,41.7,0,0,0,.943,10.258S46.6,39.9,43.411,41.183A152.5,152.5,0,0,1,50.142,16.52Z" transform="translate(-36.36 -16.52)" fill="#5226a5"/>
    <path id="Tracé_9" data-name="Tracé 9" d="M112.212,16.52s9.3,15.385,13.786,29.167c0,0-3.207-5.768-17.63,4.485,0,0-4.49,11.541-8.018,16.348l10.579-32.072a41.7,41.7,0,0,1-.943,10.258s5.768-4.806,8.961-3.523A152.879,152.879,0,0,0,112.212,16.52Z" transform="translate(-70.169 -16.52)" fill="#5226a5"/>
    <ellipse id="Ellipse_2" data-name="Ellipse 2" cx="4.806" cy="6.089" rx="4.806" ry="6.089" transform="translate(23.46 6.896)" fill="#5226a5"/>
  </g>
</svg>
