<svg xmlns="http://www.w3.org/2000/svg" width="50" height="54.83" viewBox="0 0 50 54.83">
  <g id="PictoWALL-02" transform="translate(50) rotate(90)">
    <path id="Tracé_8" data-name="Tracé 8" d="M49.895,16.52S40.765,31.905,36.36,45.687c0,0,3.15-5.768,17.315,4.485,0,0,4.405,11.541,7.874,16.348L51.159,34.448a42.44,42.44,0,0,0,.926,10.258s-5.665-4.806-8.8-3.523A154.75,154.75,0,0,1,49.895,16.52Z" transform="translate(-36.36 -16.52)" fill="#fff"/>
    <path id="Tracé_9" data-name="Tracé 9" d="M112,16.52s9.13,15.385,13.539,29.167c0,0-3.15-5.768-17.315,4.485,0,0-4.41,11.541-7.874,16.348l10.39-32.072a42.44,42.44,0,0,1-.926,10.258s5.665-4.806,8.8-3.523A155.134,155.134,0,0,0,112,16.52Z" transform="translate(-70.709 -16.52)" fill="#fff"/>
    <ellipse id="Ellipse_2" data-name="Ellipse 2" cx="4.72" cy="6.089" rx="4.72" ry="6.089" transform="translate(23.04 6.896)" fill="#fff"/>
  </g>
</svg>
