<svg xmlns="http://www.w3.org/2000/svg" width="129.232" height="129.232" viewBox="0 0 129.232 129.232">
  <g id="PictoWALL-02" transform="translate(61.057) rotate(45)">
    <path id="Tracé_8" data-name="Tracé 8" d="M60.16,16.52S44.106,43.09,36.36,66.89c0,0,5.539-9.962,30.447,7.746,0,0,7.746,19.931,13.847,28.231L62.384,47.48S61.83,53.573,64.013,65.2c0,0-9.962-8.3-15.476-6.084C48.537,59.144,51.306,41.428,60.16,16.52Z" transform="translate(-36.36 -16.52)" fill="#5226a5"/>
    <path id="Tracé_9" data-name="Tracé 9" d="M120.835,16.52s16.054,26.57,23.808,50.37c0,0-5.539-9.962-30.447,7.746,0,0-7.754,19.931-13.847,28.231L118.62,47.48s.554,6.093-1.629,17.716c0,0,9.962-8.3,15.476-6.084C132.458,59.144,129.7,41.428,120.835,16.52Z" transform="translate(-48.229 -16.52)" fill="#5226a5"/>
    <ellipse id="Ellipse_2" data-name="Ellipse 2" cx="8.3" cy="10.515" rx="8.3" ry="10.515" transform="translate(40.514 11.908)" fill="#5226a5"/>
  </g>
</svg>
