<svg xmlns="http://www.w3.org/2000/svg" width="49.99" height="50" viewBox="0 0 49.99 50">
  <g id="instagram" transform="translate(-0.449)">
    <path id="Tracé_16" data-name="Tracé 16" d="M50.313,14.7A18.27,18.27,0,0,0,49.15,8.634a12.808,12.808,0,0,0-7.316-7.316A18.317,18.317,0,0,0,35.769.156C33.092.029,32.243,0,25.454,0s-7.638.029-10.3.147A18.275,18.275,0,0,0,9.084,1.309,12.2,12.2,0,0,0,4.649,4.2,12.31,12.31,0,0,0,1.768,8.625,18.319,18.319,0,0,0,.606,14.69C.479,17.367.449,18.217.449,25S.479,32.643.6,35.31a18.269,18.269,0,0,0,1.163,6.066,12.806,12.806,0,0,0,7.316,7.316,18.32,18.32,0,0,0,6.066,1.162c2.666.118,3.516.147,10.3.147s7.638-.029,10.3-.147a18.265,18.265,0,0,0,6.065-1.162,12.789,12.789,0,0,0,7.316-7.316,18.331,18.331,0,0,0,1.162-6.066c.117-2.667.147-3.516.147-10.3S50.43,17.367,50.313,14.7Zm-4.5,20.414a13.7,13.7,0,0,1-.86,4.64A8.294,8.294,0,0,1,40.2,44.5a13.753,13.753,0,0,1-4.64.859c-2.637.118-3.428.147-10.1.147s-7.472-.029-10.1-.147a13.7,13.7,0,0,1-4.64-.859,7.694,7.694,0,0,1-2.872-1.866,7.774,7.774,0,0,1-1.866-2.872,13.755,13.755,0,0,1-.859-4.64c-.118-2.637-.147-3.429-.147-10.1s.029-7.472.147-10.1a13.7,13.7,0,0,1,.859-4.64A7.6,7.6,0,0,1,7.863,7.413a7.762,7.762,0,0,1,2.872-1.865,13.763,13.763,0,0,1,4.64-.86c2.637-.117,3.429-.147,10.1-.147s7.472.029,10.1.147a13.7,13.7,0,0,1,4.64.86,7.688,7.688,0,0,1,2.872,1.865,7.772,7.772,0,0,1,1.866,2.872,13.76,13.76,0,0,1,.86,4.64c.117,2.637.147,3.428.147,10.1S45.927,32.477,45.81,35.114Zm0,0" fill="#fff"/>
    <path id="Tracé_17" data-name="Tracé 17" d="M137.794,124.5a12.844,12.844,0,1,0,12.844,12.844A12.848,12.848,0,0,0,137.794,124.5Zm0,21.176a8.332,8.332,0,1,1,8.332-8.332A8.333,8.333,0,0,1,137.794,145.676Zm0,0" transform="translate(-112.339 -112.339)" fill="#fff"/>
    <path id="Tracé_18" data-name="Tracé 18" d="M368.447,91.6a3,3,0,1,1-3-3A3,3,0,0,1,368.447,91.6Zm0,0" transform="translate(-326.641 -79.947)" fill="#fff"/>
  </g>
</svg>
